<mxfile host="app.diagrams.net" modified="2020-03-13T10:31:43.364Z" agent="Mozilla/5.0 (X11; Ubuntu; Linux x86_64; rv:74.0) Gecko/20100101 Firefox/74.0" etag="sbWf-vBrBhBQzosZuq1P" version="12.8.4" type="github">
  <diagram id="eD_JJGinxh7tce8vUjwv" name="Page-1">
    <mxGraphModel dx="1355" dy="1876" grid="1" gridSize="10" guides="1" tooltips="1" connect="1" arrows="1" fold="1" page="1" pageScale="1" pageWidth="850" pageHeight="1100" math="0" shadow="0">
      <root>
        <mxCell id="0" />
        <mxCell id="1" parent="0" />
        <mxCell id="yRIOcCUZ5OUKHp-ImnXH-1" value="&lt;font style=&quot;font-size: 20px&quot;&gt;HAproxy&lt;/font&gt;" style="rounded=0;whiteSpace=wrap;html=1;" vertex="1" parent="1">
          <mxGeometry x="80" y="120" width="240" height="120" as="geometry" />
        </mxCell>
        <mxCell id="yRIOcCUZ5OUKHp-ImnXH-3" value="&lt;font style=&quot;font-size: 20px&quot;&gt;HAproxy&lt;/font&gt;" style="rounded=0;whiteSpace=wrap;html=1;" vertex="1" parent="1">
          <mxGeometry x="520" y="120" width="240" height="120" as="geometry" />
        </mxCell>
        <mxCell id="yRIOcCUZ5OUKHp-ImnXH-4" value="192.168.122.131" style="rounded=1;whiteSpace=wrap;html=1;" vertex="1" parent="1">
          <mxGeometry x="135" y="120" width="130" height="30" as="geometry" />
        </mxCell>
        <mxCell id="yRIOcCUZ5OUKHp-ImnXH-5" value="192.168.122.135" style="rounded=1;whiteSpace=wrap;html=1;" vertex="1" parent="1">
          <mxGeometry x="575" y="120" width="130" height="30" as="geometry" />
        </mxCell>
        <mxCell id="yRIOcCUZ5OUKHp-ImnXH-6" value="" style="shape=flexArrow;endArrow=classic;startArrow=classic;html=1;exitX=1;exitY=0.5;exitDx=0;exitDy=0;entryX=0;entryY=0.5;entryDx=0;entryDy=0;" edge="1" parent="1" source="yRIOcCUZ5OUKHp-ImnXH-1" target="yRIOcCUZ5OUKHp-ImnXH-3">
          <mxGeometry width="50" height="50" relative="1" as="geometry">
            <mxPoint x="400" y="350" as="sourcePoint" />
            <mxPoint x="450" y="300" as="targetPoint" />
          </mxGeometry>
        </mxCell>
        <mxCell id="yRIOcCUZ5OUKHp-ImnXH-7" value="&lt;div&gt;Keepalived&lt;/div&gt;" style="text;html=1;strokeColor=none;fillColor=none;align=center;verticalAlign=middle;whiteSpace=wrap;rounded=0;" vertex="1" parent="1">
          <mxGeometry x="330" y="150" width="180" height="20" as="geometry" />
        </mxCell>
        <mxCell id="yRIOcCUZ5OUKHp-ImnXH-9" value="" style="endArrow=classic;html=1;exitX=0.5;exitY=0;exitDx=0;exitDy=0;" edge="1" parent="1" source="yRIOcCUZ5OUKHp-ImnXH-4">
          <mxGeometry width="50" height="50" relative="1" as="geometry">
            <mxPoint x="400" y="270" as="sourcePoint" />
            <mxPoint x="440" y="-320" as="targetPoint" />
            <Array as="points">
              <mxPoint x="200" y="-160" />
              <mxPoint x="440" y="-160" />
            </Array>
          </mxGeometry>
        </mxCell>
        <mxCell id="yRIOcCUZ5OUKHp-ImnXH-10" value="" style="endArrow=none;dashed=1;html=1;entryX=0.5;entryY=0;entryDx=0;entryDy=0;" edge="1" parent="1" target="yRIOcCUZ5OUKHp-ImnXH-5">
          <mxGeometry width="50" height="50" relative="1" as="geometry">
            <mxPoint x="440" y="-160" as="sourcePoint" />
            <mxPoint x="450" y="-30" as="targetPoint" />
            <Array as="points">
              <mxPoint x="640" y="-160" />
            </Array>
          </mxGeometry>
        </mxCell>
        <mxCell id="yRIOcCUZ5OUKHp-ImnXH-12" value="VIP:&lt;br&gt;192.168.122.200" style="ellipse;whiteSpace=wrap;html=1;" vertex="1" parent="1">
          <mxGeometry x="380" y="-400" width="120" height="80" as="geometry" />
        </mxCell>
        <mxCell id="yRIOcCUZ5OUKHp-ImnXH-17" value="10.0.0.64" style="rounded=1;whiteSpace=wrap;html=1;" vertex="1" parent="1">
          <mxGeometry x="135" y="210" width="130" height="30" as="geometry" />
        </mxCell>
        <mxCell id="yRIOcCUZ5OUKHp-ImnXH-18" value="10.0.0.29" style="rounded=1;whiteSpace=wrap;html=1;" vertex="1" parent="1">
          <mxGeometry x="580" y="210" width="130" height="30" as="geometry" />
        </mxCell>
        <mxCell id="yRIOcCUZ5OUKHp-ImnXH-19" value="" style="rounded=0;whiteSpace=wrap;html=1;" vertex="1" parent="1">
          <mxGeometry x="40" y="400" width="240" height="640" as="geometry" />
        </mxCell>
        <mxCell id="yRIOcCUZ5OUKHp-ImnXH-20" value="" style="rounded=0;whiteSpace=wrap;html=1;" vertex="1" parent="1">
          <mxGeometry x="340" y="400" width="240" height="640" as="geometry" />
        </mxCell>
        <mxCell id="yRIOcCUZ5OUKHp-ImnXH-21" value="" style="rounded=0;whiteSpace=wrap;html=1;" vertex="1" parent="1">
          <mxGeometry x="640" y="400" width="240" height="640" as="geometry" />
        </mxCell>
        <mxCell id="yRIOcCUZ5OUKHp-ImnXH-22" value="" style="endArrow=classic;html=1;exitX=0.5;exitY=1;exitDx=0;exitDy=0;entryX=0.5;entryY=0;entryDx=0;entryDy=0;" edge="1" parent="1" source="yRIOcCUZ5OUKHp-ImnXH-17" target="yRIOcCUZ5OUKHp-ImnXH-19">
          <mxGeometry width="50" height="50" relative="1" as="geometry">
            <mxPoint x="400" y="390" as="sourcePoint" />
            <mxPoint x="450" y="340" as="targetPoint" />
          </mxGeometry>
        </mxCell>
        <mxCell id="yRIOcCUZ5OUKHp-ImnXH-23" value="" style="endArrow=classic;html=1;entryX=0.5;entryY=0;entryDx=0;entryDy=0;" edge="1" parent="1" target="yRIOcCUZ5OUKHp-ImnXH-20">
          <mxGeometry width="50" height="50" relative="1" as="geometry">
            <mxPoint x="200" y="240" as="sourcePoint" />
            <mxPoint x="160" y="390" as="targetPoint" />
          </mxGeometry>
        </mxCell>
        <mxCell id="yRIOcCUZ5OUKHp-ImnXH-24" value="" style="endArrow=classic;html=1;entryX=0.5;entryY=0;entryDx=0;entryDy=0;exitX=0.5;exitY=1;exitDx=0;exitDy=0;" edge="1" parent="1" source="yRIOcCUZ5OUKHp-ImnXH-17" target="yRIOcCUZ5OUKHp-ImnXH-21">
          <mxGeometry width="50" height="50" relative="1" as="geometry">
            <mxPoint x="210" y="250" as="sourcePoint" />
            <mxPoint x="470" y="410" as="targetPoint" />
          </mxGeometry>
        </mxCell>
        <mxCell id="yRIOcCUZ5OUKHp-ImnXH-25" value="" style="endArrow=classic;html=1;exitX=0.5;exitY=1;exitDx=0;exitDy=0;entryX=0.5;entryY=0;entryDx=0;entryDy=0;" edge="1" parent="1" source="yRIOcCUZ5OUKHp-ImnXH-18" target="yRIOcCUZ5OUKHp-ImnXH-19">
          <mxGeometry width="50" height="50" relative="1" as="geometry">
            <mxPoint x="210" y="250" as="sourcePoint" />
            <mxPoint x="160" y="400" as="targetPoint" />
          </mxGeometry>
        </mxCell>
        <mxCell id="yRIOcCUZ5OUKHp-ImnXH-26" value="" style="endArrow=classic;html=1;exitX=0.5;exitY=1;exitDx=0;exitDy=0;entryX=0.5;entryY=0;entryDx=0;entryDy=0;" edge="1" parent="1" source="yRIOcCUZ5OUKHp-ImnXH-18" target="yRIOcCUZ5OUKHp-ImnXH-20">
          <mxGeometry width="50" height="50" relative="1" as="geometry">
            <mxPoint x="655" y="250" as="sourcePoint" />
            <mxPoint x="170" y="410" as="targetPoint" />
          </mxGeometry>
        </mxCell>
        <mxCell id="yRIOcCUZ5OUKHp-ImnXH-27" value="" style="endArrow=classic;html=1;exitX=0.5;exitY=1;exitDx=0;exitDy=0;entryX=0.5;entryY=0;entryDx=0;entryDy=0;" edge="1" parent="1" source="yRIOcCUZ5OUKHp-ImnXH-18" target="yRIOcCUZ5OUKHp-ImnXH-21">
          <mxGeometry width="50" height="50" relative="1" as="geometry">
            <mxPoint x="655" y="250" as="sourcePoint" />
            <mxPoint x="180" y="420" as="targetPoint" />
          </mxGeometry>
        </mxCell>
        <mxCell id="yRIOcCUZ5OUKHp-ImnXH-28" value="10.0.0.100" style="rounded=1;whiteSpace=wrap;html=1;" vertex="1" parent="1">
          <mxGeometry x="90" y="400" width="140" height="30" as="geometry" />
        </mxCell>
        <mxCell id="yRIOcCUZ5OUKHp-ImnXH-29" value="10.0.0.66" style="rounded=1;whiteSpace=wrap;html=1;" vertex="1" parent="1">
          <mxGeometry x="390" y="400" width="140" height="30" as="geometry" />
        </mxCell>
        <mxCell id="yRIOcCUZ5OUKHp-ImnXH-30" value="10.0.0.12" style="rounded=1;whiteSpace=wrap;html=1;" vertex="1" parent="1">
          <mxGeometry x="680" y="400" width="140" height="30" as="geometry" />
        </mxCell>
        <mxCell id="yRIOcCUZ5OUKHp-ImnXH-32" value="&lt;font style=&quot;font-size: 18px&quot;&gt;Keystone&lt;/font&gt;" style="rounded=0;whiteSpace=wrap;html=1;" vertex="1" parent="1">
          <mxGeometry x="40" y="440" width="240" height="40" as="geometry" />
        </mxCell>
        <mxCell id="yRIOcCUZ5OUKHp-ImnXH-33" value="&lt;font style=&quot;font-size: 18px&quot;&gt;Keystone&lt;/font&gt;" style="rounded=0;whiteSpace=wrap;html=1;" vertex="1" parent="1">
          <mxGeometry x="340" y="440" width="240" height="40" as="geometry" />
        </mxCell>
        <mxCell id="yRIOcCUZ5OUKHp-ImnXH-35" value="&lt;font style=&quot;font-size: 18px;&quot;&gt;Glance&lt;/font&gt;" style="rounded=0;whiteSpace=wrap;html=1;fontSize=18;" vertex="1" parent="1">
          <mxGeometry x="40" y="480" width="240" height="40" as="geometry" />
        </mxCell>
        <mxCell id="yRIOcCUZ5OUKHp-ImnXH-36" value="Placement" style="rounded=0;whiteSpace=wrap;html=1;fontSize=18;" vertex="1" parent="1">
          <mxGeometry x="40" y="520" width="240" height="40" as="geometry" />
        </mxCell>
        <mxCell id="yRIOcCUZ5OUKHp-ImnXH-37" value="Nova" style="rounded=0;whiteSpace=wrap;html=1;fontSize=18;" vertex="1" parent="1">
          <mxGeometry x="40" y="560" width="240" height="40" as="geometry" />
        </mxCell>
        <mxCell id="yRIOcCUZ5OUKHp-ImnXH-38" value="Neutron" style="rounded=0;whiteSpace=wrap;html=1;fontSize=18;" vertex="1" parent="1">
          <mxGeometry x="40" y="600" width="240" height="40" as="geometry" />
        </mxCell>
        <mxCell id="yRIOcCUZ5OUKHp-ImnXH-47" value="&lt;font style=&quot;font-size: 18px;&quot;&gt;Glance&lt;/font&gt;" style="rounded=0;whiteSpace=wrap;html=1;fontSize=18;" vertex="1" parent="1">
          <mxGeometry x="340" y="480" width="240" height="40" as="geometry" />
        </mxCell>
        <mxCell id="yRIOcCUZ5OUKHp-ImnXH-48" value="Placement" style="rounded=0;whiteSpace=wrap;html=1;fontSize=18;" vertex="1" parent="1">
          <mxGeometry x="340" y="520" width="240" height="40" as="geometry" />
        </mxCell>
        <mxCell id="yRIOcCUZ5OUKHp-ImnXH-49" value="Nova" style="rounded=0;whiteSpace=wrap;html=1;fontSize=18;" vertex="1" parent="1">
          <mxGeometry x="340" y="560" width="240" height="40" as="geometry" />
        </mxCell>
        <mxCell id="yRIOcCUZ5OUKHp-ImnXH-50" value="Neutron" style="rounded=0;whiteSpace=wrap;html=1;fontSize=18;" vertex="1" parent="1">
          <mxGeometry x="340" y="600" width="240" height="40" as="geometry" />
        </mxCell>
        <mxCell id="yRIOcCUZ5OUKHp-ImnXH-55" value="MariaDB" style="rounded=0;whiteSpace=wrap;html=1;fontSize=18;" vertex="1" parent="1">
          <mxGeometry x="40" y="980" width="240" height="60" as="geometry" />
        </mxCell>
        <mxCell id="yRIOcCUZ5OUKHp-ImnXH-56" value="MariaDB" style="rounded=0;whiteSpace=wrap;html=1;fontSize=18;" vertex="1" parent="1">
          <mxGeometry x="340" y="980" width="240" height="60" as="geometry" />
        </mxCell>
        <mxCell id="yRIOcCUZ5OUKHp-ImnXH-57" value="MariaDB" style="rounded=0;whiteSpace=wrap;html=1;fontSize=18;" vertex="1" parent="1">
          <mxGeometry x="640" y="980" width="240" height="60" as="geometry" />
        </mxCell>
        <mxCell id="yRIOcCUZ5OUKHp-ImnXH-59" value="HAproxy" style="rounded=0;whiteSpace=wrap;html=1;fontSize=18;" vertex="1" parent="1">
          <mxGeometry x="335" y="800" width="240" height="60" as="geometry" />
        </mxCell>
        <mxCell id="yRIOcCUZ5OUKHp-ImnXH-60" value="" style="shape=flexArrow;endArrow=classic;startArrow=classic;html=1;fontSize=18;exitX=1;exitY=0.5;exitDx=0;exitDy=0;entryX=0;entryY=0.5;entryDx=0;entryDy=0;" edge="1" parent="1" source="yRIOcCUZ5OUKHp-ImnXH-58" target="yRIOcCUZ5OUKHp-ImnXH-59">
          <mxGeometry width="50" height="50" relative="1" as="geometry">
            <mxPoint x="400" y="630" as="sourcePoint" />
            <mxPoint x="450" y="580" as="targetPoint" />
          </mxGeometry>
        </mxCell>
        <mxCell id="yRIOcCUZ5OUKHp-ImnXH-61" value="Keepalived" style="text;html=1;strokeColor=none;fillColor=none;align=center;verticalAlign=middle;whiteSpace=wrap;rounded=0;fontSize=12;" vertex="1" parent="1">
          <mxGeometry x="290" y="800" width="40" height="20" as="geometry" />
        </mxCell>
        <mxCell id="yRIOcCUZ5OUKHp-ImnXH-62" value="" style="endArrow=classic;html=1;fontSize=12;entryX=0.5;entryY=0;entryDx=0;entryDy=0;exitX=0.5;exitY=1;exitDx=0;exitDy=0;" edge="1" parent="1" source="yRIOcCUZ5OUKHp-ImnXH-58" target="yRIOcCUZ5OUKHp-ImnXH-55">
          <mxGeometry width="50" height="50" relative="1" as="geometry">
            <mxPoint x="-50" y="870" as="sourcePoint" />
            <mxPoint x="450" y="690" as="targetPoint" />
          </mxGeometry>
        </mxCell>
        <mxCell id="yRIOcCUZ5OUKHp-ImnXH-63" value="" style="endArrow=classic;html=1;fontSize=12;entryX=0.5;entryY=0;entryDx=0;entryDy=0;exitX=0.5;exitY=1;exitDx=0;exitDy=0;" edge="1" parent="1" source="yRIOcCUZ5OUKHp-ImnXH-58" target="yRIOcCUZ5OUKHp-ImnXH-56">
          <mxGeometry width="50" height="50" relative="1" as="geometry">
            <mxPoint x="170" y="820" as="sourcePoint" />
            <mxPoint x="170" y="990" as="targetPoint" />
          </mxGeometry>
        </mxCell>
        <mxCell id="yRIOcCUZ5OUKHp-ImnXH-64" value="" style="endArrow=classic;html=1;fontSize=12;exitX=0.5;exitY=1;exitDx=0;exitDy=0;entryX=0.5;entryY=0;entryDx=0;entryDy=0;" edge="1" parent="1" source="yRIOcCUZ5OUKHp-ImnXH-58" target="yRIOcCUZ5OUKHp-ImnXH-57">
          <mxGeometry width="50" height="50" relative="1" as="geometry">
            <mxPoint x="170" y="820" as="sourcePoint" />
            <mxPoint x="170" y="990" as="targetPoint" />
          </mxGeometry>
        </mxCell>
        <mxCell id="yRIOcCUZ5OUKHp-ImnXH-65" value="" style="endArrow=classic;html=1;fontSize=12;exitX=0.5;exitY=1;exitDx=0;exitDy=0;entryX=0.5;entryY=0;entryDx=0;entryDy=0;" edge="1" parent="1" source="yRIOcCUZ5OUKHp-ImnXH-59" target="yRIOcCUZ5OUKHp-ImnXH-55">
          <mxGeometry width="50" height="50" relative="1" as="geometry">
            <mxPoint x="170" y="820" as="sourcePoint" />
            <mxPoint x="170" y="990" as="targetPoint" />
          </mxGeometry>
        </mxCell>
        <mxCell id="yRIOcCUZ5OUKHp-ImnXH-66" value="" style="endArrow=classic;html=1;fontSize=12;exitX=0.5;exitY=1;exitDx=0;exitDy=0;" edge="1" parent="1" source="yRIOcCUZ5OUKHp-ImnXH-59" target="yRIOcCUZ5OUKHp-ImnXH-56">
          <mxGeometry width="50" height="50" relative="1" as="geometry">
            <mxPoint x="470" y="820" as="sourcePoint" />
            <mxPoint x="170" y="990" as="targetPoint" />
          </mxGeometry>
        </mxCell>
        <mxCell id="yRIOcCUZ5OUKHp-ImnXH-67" value="" style="endArrow=classic;html=1;fontSize=12;exitX=0.5;exitY=1;exitDx=0;exitDy=0;entryX=0.5;entryY=0;entryDx=0;entryDy=0;" edge="1" parent="1" source="yRIOcCUZ5OUKHp-ImnXH-59" target="yRIOcCUZ5OUKHp-ImnXH-57">
          <mxGeometry width="50" height="50" relative="1" as="geometry">
            <mxPoint x="470" y="820" as="sourcePoint" />
            <mxPoint x="470" y="990" as="targetPoint" />
          </mxGeometry>
        </mxCell>
        <mxCell id="yRIOcCUZ5OUKHp-ImnXH-68" value="&lt;font style=&quot;font-size: 18px&quot;&gt;RabbitMQ&lt;/font&gt;" style="rounded=0;whiteSpace=wrap;html=1;fontSize=12;" vertex="1" parent="1">
          <mxGeometry x="40" y="660" width="240" height="60" as="geometry" />
        </mxCell>
        <mxCell id="yRIOcCUZ5OUKHp-ImnXH-70" style="edgeStyle=orthogonalEdgeStyle;rounded=0;orthogonalLoop=1;jettySize=auto;html=1;exitX=0.5;exitY=1;exitDx=0;exitDy=0;fontSize=12;" edge="1" parent="1" source="yRIOcCUZ5OUKHp-ImnXH-68" target="yRIOcCUZ5OUKHp-ImnXH-68">
          <mxGeometry relative="1" as="geometry" />
        </mxCell>
        <mxCell id="yRIOcCUZ5OUKHp-ImnXH-72" value="&lt;font style=&quot;font-size: 18px&quot;&gt;RabbitMQ&lt;/font&gt;" style="rounded=0;whiteSpace=wrap;html=1;fontSize=12;" vertex="1" parent="1">
          <mxGeometry x="340" y="660" width="240" height="60" as="geometry" />
        </mxCell>
        <mxCell id="yRIOcCUZ5OUKHp-ImnXH-73" value="&lt;font style=&quot;font-size: 18px&quot;&gt;RabbitMQ&lt;/font&gt;" style="rounded=0;whiteSpace=wrap;html=1;fontSize=12;" vertex="1" parent="1">
          <mxGeometry x="640" y="660" width="240" height="60" as="geometry" />
        </mxCell>
        <mxCell id="yRIOcCUZ5OUKHp-ImnXH-79" value="&lt;font style=&quot;font-size: 18px&quot;&gt;Galera-cluster&lt;/font&gt;" style="rounded=1;whiteSpace=wrap;html=1;fillColor=none;fontSize=12;" vertex="1" parent="1">
          <mxGeometry x="35" y="1120" width="840" height="60" as="geometry" />
        </mxCell>
        <mxCell id="yRIOcCUZ5OUKHp-ImnXH-58" value="HAproxy" style="rounded=0;whiteSpace=wrap;html=1;fontSize=18;" vertex="1" parent="1">
          <mxGeometry x="40" y="800" width="240" height="60" as="geometry" />
        </mxCell>
        <mxCell id="yRIOcCUZ5OUKHp-ImnXH-84" value="" style="shape=flexArrow;endArrow=classic;startArrow=classic;html=1;fontSize=12;exitX=0.147;exitY=-0.017;exitDx=0;exitDy=0;exitPerimeter=0;entryX=0.5;entryY=1;entryDx=0;entryDy=0;" edge="1" parent="1" source="yRIOcCUZ5OUKHp-ImnXH-79" target="yRIOcCUZ5OUKHp-ImnXH-55">
          <mxGeometry width="50" height="50" relative="1" as="geometry">
            <mxPoint x="380" y="840" as="sourcePoint" />
            <mxPoint x="430" y="790" as="targetPoint" />
          </mxGeometry>
        </mxCell>
        <mxCell id="yRIOcCUZ5OUKHp-ImnXH-88" value="" style="shape=flexArrow;endArrow=classic;startArrow=classic;html=1;fontSize=12;exitX=0.147;exitY=-0.017;exitDx=0;exitDy=0;exitPerimeter=0;entryX=0.5;entryY=1;entryDx=0;entryDy=0;" edge="1" parent="1">
          <mxGeometry width="50" height="50" relative="1" as="geometry">
            <mxPoint x="454.50000000000017" y="1120" as="sourcePoint" />
            <mxPoint x="455.43" y="1041.02" as="targetPoint" />
          </mxGeometry>
        </mxCell>
        <mxCell id="yRIOcCUZ5OUKHp-ImnXH-89" value="" style="shape=flexArrow;endArrow=classic;startArrow=classic;html=1;fontSize=12;exitX=0.147;exitY=-0.017;exitDx=0;exitDy=0;exitPerimeter=0;entryX=0.5;entryY=1;entryDx=0;entryDy=0;" edge="1" parent="1">
          <mxGeometry width="50" height="50" relative="1" as="geometry">
            <mxPoint x="739.5000000000001" y="1120" as="sourcePoint" />
            <mxPoint x="740.43" y="1041.02" as="targetPoint" />
          </mxGeometry>
        </mxCell>
        <mxCell id="yRIOcCUZ5OUKHp-ImnXH-90" value="" style="shape=flexArrow;endArrow=classic;startArrow=classic;html=1;fontSize=12;exitX=1;exitY=0.5;exitDx=0;exitDy=0;entryX=0;entryY=0.5;entryDx=0;entryDy=0;" edge="1" parent="1" source="yRIOcCUZ5OUKHp-ImnXH-68" target="yRIOcCUZ5OUKHp-ImnXH-72">
          <mxGeometry width="50" height="50" relative="1" as="geometry">
            <mxPoint x="380" y="840" as="sourcePoint" />
            <mxPoint x="430" y="790" as="targetPoint" />
          </mxGeometry>
        </mxCell>
        <mxCell id="yRIOcCUZ5OUKHp-ImnXH-91" value="" style="shape=flexArrow;endArrow=classic;startArrow=classic;html=1;fontSize=12;exitX=1;exitY=0.5;exitDx=0;exitDy=0;entryX=0;entryY=0.5;entryDx=0;entryDy=0;" edge="1" parent="1">
          <mxGeometry width="50" height="50" relative="1" as="geometry">
            <mxPoint x="580" y="689.5" as="sourcePoint" />
            <mxPoint x="640" y="689.5" as="targetPoint" />
          </mxGeometry>
        </mxCell>
      </root>
    </mxGraphModel>
  </diagram>
</mxfile>
